<svg width="100" height="100" viewBox="0 0 100 100" fill="none" xmlns="http://www.w3.org/2000/svg">
<path d="M66.6663 8.43103C80.4246 8.43103 91.5686 18.9965 91.5686 32.0179C91.5686 35.8781 90.7925 39.9357 89.2415 44.1927L82.7249 37.6947C83.1225 36.0211 83.3528 34.4107 83.4143 32.8646V32.8627L83.4309 32.0199V32.0179C83.4309 23.5832 76.0158 16.5687 66.6663 16.5687C63.4785 16.5688 60.45 17.3875 57.8459 18.8812L57.8352 18.8881L57.8264 18.8959L46.1604 30.14L46.1584 30.142C44.4935 31.8072 44.4934 34.507 46.1584 36.1722C47.8237 37.8377 50.5244 37.8377 52.1897 36.1722L52.1907 36.1713L63.428 24.4818L69.0305 30.1605L85.1184 46.2474C89.9619 51.0909 89.9619 58.9432 85.1184 63.7865C83.6652 65.2397 81.9417 66.2571 80.1096 66.8383L79.7424 66.9486L79.5383 67.0013L79.4475 67.0258L79.467 67.1166C80.3351 71.1042 79.2191 75.4368 76.1194 78.5365C72.9288 81.7271 68.4321 82.8163 64.3499 81.8031L64.259 81.7806L64.2327 81.8705C63.6726 83.7868 62.6291 85.5515 61.1086 86.9369C56.7581 90.9012 50.4051 91.2683 45.6467 87.7924L44.9153 87.1576H44.9163L41.6711 84.2474C30.5843 74.1331 22.2728 64.7222 16.7336 56.015C11.1943 47.3076 8.43101 39.3092 8.43091 32.0179C8.43091 18.9964 19.575 8.43113 33.3333 8.43103C39.7145 8.43103 45.5349 10.7044 49.9407 14.4418L50.0032 14.4955L50.0667 14.4418C54.469 10.7032 60.2871 8.43112 66.6663 8.43103ZM33.3333 16.5687C23.9838 16.5688 16.5686 23.5832 16.5686 32.0179C16.5687 37.9004 19.0652 44.7549 24.1262 52.4789C29.1881 60.2041 36.8207 68.8068 47.1047 78.1888L47.1057 78.1898L48.9719 79.8636V79.8646C49.8068 80.7069 50.9969 81.4546 52.2063 81.7758C53.416 82.097 54.6622 81.9947 55.5823 81.1078C57.2373 79.5117 57.0618 77.2911 55.7747 75.6586L55.7668 75.6508L53.1956 73.0277L43.5618 63.3939L43.4622 63.307L49.2825 57.4838L57.844 66.1683V66.1693L61.1057 69.4291C61.3253 69.6486 61.5366 69.8767 61.7385 70.1127L61.7424 70.1176L63.8245 72.2386L63.8254 72.2396C66.0226 74.4368 68.7746 74.5372 70.4495 72.8627C72.1235 71.1886 72.054 68.4068 69.8557 66.2084L59.8909 56.097L55.2825 51.4867L61.0364 45.7279L63.9817 48.6752L64.051 48.6068L63.9817 48.6761L63.9885 48.682C64.2912 48.9328 64.5826 49.197 64.8606 49.475L68.6604 53.3597L73.3342 58.0326C74.9995 59.6977 77.6993 59.6978 79.3645 58.0326C81.03 56.3673 81.03 53.6668 79.3645 52.0013L63.6819 36.3226L63.6125 36.2533L63.5432 36.3226L57.9436 41.9261C53.1001 46.7697 45.248 46.7697 40.4045 41.9261C35.5613 37.0828 35.5613 29.2304 40.4045 24.3871L44.303 20.4857L44.3801 20.4076L44.2942 20.3402L43.8918 20.0219L43.8899 20.0209L43.3284 19.6176C40.4777 17.6585 37.0107 16.5687 33.3333 16.5687Z" fill="white" stroke="white" stroke-width="0.195312"/>
</svg>
