<svg width="100" height="100" viewBox="0 0 100 100" fill="none" xmlns="http://www.w3.org/2000/svg">
<path d="M65.5703 64.6016C74.5566 58.4961 81.25 49.0898 81.25 37.5C81.25 29.212 77.9576 21.2634 72.0971 15.4029C66.2366 9.5424 58.288 6.25 50 6.25C41.712 6.25 33.7634 9.5424 27.9029 15.4029C22.0424 21.2634 18.75 29.212 18.75 37.5V77.8457C18.75 86.4902 25.7305 93.75 34.375 93.75C43.0195 93.75 47.4277 88.6836 49.4707 85.9375C52.3555 82.0684 57.6172 70.0078 65.5703 64.6016Z" stroke="white" stroke-width="6" stroke-linecap="round" stroke-linejoin="round"/>
<path d="M31.25 59.375V35.9375C31.25 26.4844 39.6875 18.75 50 18.75C60.3125 18.75 68.75 26.4844 68.75 35.9375" stroke="white" stroke-width="6" stroke-linecap="round" stroke-linejoin="round"/>
<path d="M31.25 46.6797C36.1328 43.1641 46.8398 43.75 46.8398 43.75C51.918 43.75 54.8809 49.4961 51.918 53.6328C51.918 53.6328 44.7188 61.9141 43.7422 65.625" stroke="white" stroke-width="6" stroke-linecap="round" stroke-linejoin="round"/>
</svg>
