<svg width="100" height="100" viewBox="0 0 100 100" fill="none" xmlns="http://www.w3.org/2000/svg">
<path d="M81.2496 22.2767V46.2504C81.2496 56.3598 78.2513 65.5335 72.2233 73.8295C66.3159 81.9592 58.9171 87.1483 49.9987 89.5121C41.084 87.1453 33.6866 81.9539 27.777 73.8246C21.7462 65.5286 18.747 56.3566 18.7496 46.2504V22.2767L49.9996 10.558L81.2496 22.2767ZM54.1666 33.3334V43.7504H64.5836V52.0834H54.1666V62.5004H45.8336V52.0834H35.4166V43.7504H45.8336V33.3334H54.1666ZM77.0836 25.1185L75.7311 24.6117L50.7311 15.2367L49.9996 14.9623L49.2682 15.2367L22.9166 25.1185V46.2504C22.9167 55.0707 25.4034 63.1213 30.3658 70.3461C35.3226 77.5625 41.6605 82.4565 49.3698 84.9027L49.9996 85.1019L50.6305 84.9027C58.3396 82.4565 64.6768 77.5623 69.6334 70.3461C74.5959 63.1213 77.0836 55.0708 77.0836 46.2504V25.1185Z" fill="white" stroke="white" stroke-width="4.16667"/>
</svg>
